# xmcd
#
# Track frame offsets:
#	150
#	11417
#	19594
#	30328
#	41952
#	52558
#	65789
#	75252
#	87920
#	100634
#	108636
#	121920
#	129995
#	142325
#	157126
#	169695
#
# Disc length: 2470 seconds
#
# Revision: 1
# Processed by: cddbd v1.5.2PL0 Copyright (c) Steve Scherf et al.
# Submitted via: audiograbber 1.83.01
#
DISCID=c509a410
DTITLE=Jive Number Two - Jive Number Two
DYEAR=1900
DGENRE=
TTITLE0=Sea Cruise - 41
TTITLE1=Rave On - 40
TTITLE2=Stock on You - 34
TTITLE3=Twistin´ the night away - 40
TTITLE4=Chantilly Lace - 44
TTITLE5=Don´t be cruel - 42
TTITLE6=Greased Lightning - 40
TTITLE7=The Wanderer - 30
TTITLE8=Matchbox - 38
TTITLE9=Waterloo - 37
TTITLE10=Bad bad Leroy Brown - 40
TTITLE11=Teddy Bear - 45
TTITLE12=It´ll be me - 40
TTITLE13=Time Warp - 44
TTITLE14=Bye bye love - 38
TTITLE15=CC Rider - 40
EXTD=
EXTT0=
EXTT1=
EXTT2=
EXTT3=
EXTT4=
EXTT5=
EXTT6=
EXTT7=
EXTT8=
EXTT9=
EXTT10=
EXTT11=
EXTT12=
EXTT13=
EXTT14=
EXTT15=
PLAYORDER=
